<?xml version="1.0" encoding="UTF-8"?>
<svg width="512" height="512" viewBox="0 0 512 512" xmlns="http://www.w3.org/2000/svg" xmlns:xlink="http://www.w3.org/1999/xlink">
  <defs>
    <!-- Background com bordas arredondadas para PWA -->
    <linearGradient id="bgGradient" x1="0%" y1="0%" x2="100%" y2="100%">
      <stop offset="0%" style="stop-color:#ffffff;stop-opacity:1" />
      <stop offset="100%" style="stop-color:#f8f6fc;stop-opacity:1" />
    </linearGradient>
    
    <!-- Gradientes do logo original -->
    <radialGradient id="id0" gradientUnits="userSpaceOnUse" gradientTransform="matrix(48.5 0 0 48.5 106 106)" cx="3.6891" cy="2.7778" r="1.6274" fx="3.6891" fy="2.7778">
      <stop offset="0" style="stop-opacity:1; stop-color:#9B64E3"/>
      <stop offset="0.54902" style="stop-opacity:1; stop-color:#0083E5"/>
      <stop offset="1" style="stop-opacity:1; stop-color:#0083E5"/>
    </radialGradient>
    
    <radialGradient id="id1" gradientUnits="userSpaceOnUse" gradientTransform="matrix(48.5 0 0 48.5 158 158)" xlink:href="#id0" cx="2.3924" cy="2.3409" r="3.4425" fx="2.3924" fy="2.3409">
    </radialGradient>
    
    <!-- Sombra suave para o logo -->
    <filter id="logoShadow" x="-50%" y="-50%" width="200%" height="200%">
      <feDropShadow dx="0" dy="8" stdDeviation="12" flood-color="rgba(155, 100, 227, 0.15)"/>
    </filter>
  </defs>
  
  <!-- Background com bordas arredondadas -->
  <rect width="512" height="512" rx="90" fill="url(#bgGradient)"/>
  
  <!-- Logo Midnight centrado e escalado -->
  <g transform="translate(256, 256) scale(41.7)" filter="url(#logoShadow)">
    <g id="Logo_Midnight" transform="translate(-3.07, -3.44)">
      <!-- Primeira parte do logo (M) -->
      <path fill="url(#id0)" d="M4.7505 2.8756l0 1.6591 -0.5808 0 0 -0.5315 -0 -0.9108c-0.2144,0.3548 -0.4185,0.8135 -0.5863,1.4063l-0.5828 -1.0575 0 1.0935 -0.5808 0 0 -2.1483 0.5808 0 0.4854 0.8813c0,0 0.1785,-0.4961 0.6463,-0.911 0.3436,-0.305 0.7812,-0.4839 1.3164,-0.4839l0.1008 0.0023 0.1228 0.0078 0.0022 0c0,0 -0.4242,0.0278 -0.9239,0.4848l0 0.508z"/>
      
      <!-- Segunda parte do logo (símbolo circular) -->
      <path fill="url(#id1)" d="M3.4425 0c1.0897,0 2.061,0.5065 2.6918,1.2967 -0.5634,-0.586 -1.3553,-0.9508 -2.2325,-0.9508 -1.7102,0 -3.0966,1.3864 -3.0966,3.0966 0,1.6914 1.356,3.066 3.0402,3.0961 0.341,-0.0262 0.683,-0.074 0.9879,-0.1421 0.5005,-0.1577 0.9461,-0.4391 1.301,-0.8083 -0.6308,0.7902 -1.6021,1.2967 -2.6918,1.2967 -1.9013,0 -3.4425,-1.5413 -3.4425,-3.4425 0,-1.9013 1.5413,-3.4425 3.4425,-3.4425zm-2.7976 5.4478c0,0.0001 0.0001,0.0001 0.0001,0.0002 -0,-0.0001 -0.0001,-0.0001 -0.0001,-0.0002zm-0.0219 -0.0309c0.0073,0.0103 0.0146,0.0206 0.0219,0.0308 -0.0074,-0.0102 -0.0147,-0.0205 -0.0219,-0.0308z"/>
    </g>
  </g>
</svg>