<?xml version="1.0" encoding="UTF-8"?>
<svg id="Layer_2" data-name="Layer 2" xmlns="http://www.w3.org/2000/svg" viewBox="0 0 132.95 216.62">
  <defs>
    <style>
      .cls-1 {
        fill: #fcc038;
      }

      .cls-2 {
        fill: #8e8e8e;
      }

      .cls-3 {
        fill: #656565;
      }

      .cls-4 {
        fill: #ffe91d;
      }

      .cls-5 {
        fill: #747474;
      }

      .cls-6 {
        fill: #4b4b4b;
      }
    </style>
  </defs>
  <g id="objects">
    <g>
      <g>
        <g>
          <path class="cls-2" d="M39.74,185.5v19.37c0,6.49,6.2,11.75,13.85,11.75h11.77c7.65,0,13.85-5.26,13.85-11.75v-19.37h-39.46Z"/>
          <path class="cls-3" d="M59.43,185.5h-19.69v19.37c0,6.49,6.2,11.75,13.85,11.75h5.84v-31.12Z"/>
        </g>
        <g>
          <rect class="cls-5" x="39.74" y="185.5" width="39.46" height="15.67"/>
          <rect class="cls-6" x="39.74" y="185.5" width="19.69" height="15.67"/>
        </g>
        <g>
          <path class="cls-2" d="M32.18,162.28v19.37c0,6.48,8.64,11.74,19.29,11.74h16.39c10.65,0,19.29-5.26,19.29-11.74v-19.37h-54.97Z"/>
          <path class="cls-3" d="M59.43,162.28h-27.25v19.37c0,6.48,8.64,11.74,19.29,11.74h7.95v-31.12Z"/>
        </g>
      </g>
      <g>
        <path class="cls-4" d="M59.04,156.49c-8.66,0-16.33-5.4-17.85-13.05-7.32-36.83,16.32-50.68,31.96-59.84,8.25-4.83,15.38-9.01,19.17-15.81,6.1-10.93,5.84-19.92-.79-26.74-7.74-7.96-22.95-11.62-35.38-8.51-11.2,2.8-18.14,10.57-20.05,22.47-1.38,8.6-10.54,14.6-20.47,13.4C5.71,67.2-1.21,59.26.18,50.66,4.1,26.26,20.84,8.64,46.1,2.33c26.15-6.54,56.24,1.05,73.17,18.46,15.99,16.44,18.07,38.57,5.7,60.7-8.05,14.41-21.05,22.03-31.5,28.15-14.46,8.47-19.87,11.65-16.53,28.46,1.7,8.56-4.92,16.69-14.79,18.16-1.04.16-2.08.23-3.1.23Z"/>
        <g>
          <path class="cls-1" d="M60.84,91.41c-13.02,9.48-25.19,24.19-19.65,52.03,1.52,7.65,9.18,13.05,17.85,13.05.6,0,1.2-.03,1.8-.08v-65Z"/>
          <path class="cls-1" d="M56.15,32.53c1.53-.38,3.1-.66,4.69-.84V.13c-4.98.27-9.93.99-14.74,2.2C20.84,8.64,4.1,26.26.18,50.66c-1.38,8.6,5.54,16.54,15.46,17.74,9.92,1.2,19.08-4.8,20.47-13.4,1.92-11.9,8.85-19.67,20.05-22.47Z"/>
        </g>
      </g>
    </g>
  </g>
</svg>