<?xml version="1.0" encoding="UTF-8"?>
<svg id="Layer_1" data-name="Layer 1" xmlns="http://www.w3.org/2000/svg" viewBox="0 0 384 383.36">
  <defs>
    <style>
      .cls-1 {
        fill: #e1c4fe;
      }

      .cls-2 {
        fill: #050589;
      }
    </style>
  </defs>
  <path class="cls-2" d="M384,64.48v9.73l-48.61,177.92c-4.09,8.98-13.29,13.6-23.02,12.95l-63.37-16.45,16.41,62.58c1.01,9.34-3.37,18.85-11.89,23.16l-180.78,49h-9c-5.65-2.9-11.38-5.45-14.39-11.47-15.62-52.98-29.21-106.71-43.58-160.11-1.73-6.44-3.35-13.09-5.79-19.3v-9.73c2.49-7.24,6.58-13.54,14.06-16.29l120.02-32.54L166.68,14.13c3.89-10.03,14.76-15.83,25.36-13.69,60.11,16.42,120.77,31.28,180.47,48.93,6.2,3.3,9.18,8.75,11.49,15.11ZM243.91,231.24l69.41,18.73c6.65.58,8.05-3.46,9.71-8.68,17.59-55.24,28.39-114.49,45.65-170.05.93-3.19-.49-6.29-3.05-8.27L189.78,15.39c-3.94-1.09-7.98,1.25-9.26,5.07l-29.01,109.14,42.37-11.22c9.23-.77,17.57,3.62,22.28,11.44l27.76,101.42ZM194.83,133.49L20.4,180.27c-3.87,1.29-6.16,5.35-5.08,9.24,17.26,55.56,28.05,114.82,45.65,170.05,1.43,4.49,2.29,8,7.75,8.79l177.97-47.56,3.67-5.38-46.88-176.69c-1.33-3.8-4.76-5.72-8.65-5.24Z"/>
  <path class="cls-1" d="M129.57,228.61c30.39-3.98,34.88,41.64,5.73,44.63-29.61,3.04-34.21-40.91-5.73-44.63Z"/>
  <path class="cls-1" d="M278.06,165.71c36.5-5.76,35.87,49.85,0,43.8-22.61-3.81-22.78-40.21,0-43.8Z"/>
  <path class="cls-1" d="M214.3,55.67c36.19-6.1,36.19,49.91,0,43.81-22.65-3.82-22.66-39.99,0-43.81Z"/>
  <path class="cls-1" d="M301.3,78.88c36.14-6.09,36.14,49.9,0,43.81-22.65-3.82-22.66-39.99,0-43.81Z"/>
</svg>