<?xml version="1.0" encoding="utf-8"?>
<!-- Generator: Adobe Illustrator 27.5.0, SVG Export Plug-In . SVG Version: 6.00 Build 0)  -->
<svg version="1.1" xmlns="http://www.w3.org/2000/svg" xmlns:xlink="http://www.w3.org/1999/xlink" x="0px" y="0px"
	 viewBox="0 0 1122 1122" style="enable-background:new 0 0 1122 1122;" xml:space="preserve">
<g id="Bg">
	<rect style="fill:#FFFFFF;" width="1122" height="1122"/>
</g>
<g id="Object">
	<g>
		<path style="fill:#AAD4C8;" d="M782.162,432.151c-0.067,18.843-5.441,45.369-17.594,74.392
			c-17.091,40.845-32.711,84.441-16.22,111.143c9.805,15.868,22.817,24.486,35.356,25.63c4.055,0.998,8.255,1.586,12.607,1.586
			c25.527,0,46.795-18.193,51.582-42.317l0,0c1.743-5.901,1.586-12.056,0.297-18.682c-0.551-3.401-1.416-6.676-2.584-9.82
			c-7.922-24.659-26.75-56.826-32.269-107.914c-1.344-24.998-2.064-39.117-14.029-53.666c-3.232-4.191-6.996-7.923-11.221-11.115
			c-1.598-1.228-3.431-2.146-5.168-3.205l7.413,7.396c5.078,5.084,5.078,13.332,0,18.41L782.162,432.151z M795.264,625.825
			c-0.726,2.318-5.955,3.807-8.255,3.096c-12.528-3.822-21.006-10.781-26.048-18.813c-5.077-8.028-6.827-16.922-6.827-24.789
			c0-5.229,0.757-10.04,1.919-14.023c0.684-2.318,3.105-3.65,5.429-2.972c2.336,0.678,3.667,3.113,2.99,5.435
			c-0.932,3.144-1.598,7.199-1.573,11.559c-0.024,6.591,1.906,10.691,5.907,16.961c3.994,6.273,13.084,11.714,23.87,15.061
			C794.974,618.051,795.961,623.513,795.264,625.825z"/>
		<path style="fill:#616E7D;" d="M305.411,510.14c-35.102,7.148-44.011,51.016-16.05,78.974l107.993,108.008L505.371,805.12
			c27.949,27.964,71.826,19.043,78.949-16.062l46.703-229.649l107.963-107.963l2.735,2.733c5.09,5.078,13.345,5.081,18.41,0
			l22.03-22.029l8.17-8.161c5.078-5.078,5.078-13.327,0-18.41l-7.413-7.396l-43.309-43.315l-50.71-50.71
			c-5.09-5.087-13.345-5.087-18.429-0.006l-30.175,30.19c-5.084,5.078-5.084,13.33,0,18.413l2.735,2.736l-107.957,107.96
			L305.411,510.14z M684.935,479.753c-3.843,3.849-10.089,3.849-13.944,0c-3.861-3.855-3.861-10.098,0-13.944
			c3.855-3.855,10.101-3.855,13.944-0.006C688.791,469.652,688.791,475.897,684.935,479.753z M642.825,345.412
			c-1.858-1.873-1.858-4.911,0-6.787l0.079-0.067c1.87-1.876,4.92-1.876,6.784,0l53.149,53.137l53.076,53.086
			c1.877,1.88,1.877,4.917,0,6.793l-0.06,0.064c-1.877,1.876-4.926,1.879-6.79,0l-53.083-53.086L642.825,345.412z M562.429,750.507
			c-5.58,27.491-39.931,34.473-61.833,12.573l-84.13-84.136l-85.068-85.049c-21.896-21.906-14.924-56.266,12.576-61.849
			l63.656-12.949c-1.864,31.256,15.414,61.862,59.667,68.685c14.398,2.662,25.885,3.461,35.944,4.363
			c27.536,2.493,44.404,5.894,81.001,51.109L562.429,750.507z M611.173,449.317c5.688-5.683,14.894-5.689,20.589-0.006
			c2.518,2.524,3.837,5.744,4.14,9.048c0.363,4.134-0.993,8.376-4.152,11.535c-3.147,3.165-7.396,4.506-11.535,4.152
			c-3.304-0.288-6.536-1.622-9.054-4.152C605.471,464.217,605.471,455,611.173,449.317z M549.769,544.794
			c0.629-4.59,2.651-9.012,6.161-12.546c3.547-3.531,7.965-5.537,12.54-6.182c6.645-0.932,13.63,1.077,18.749,6.182
			c8.619,8.642,8.636,22.638,0,31.271c-8.642,8.642-22.635,8.642-31.289,0C550.833,558.414,548.824,551.433,549.769,544.794z"/>
		<path style="fill:#AAD4C8;" d="M343.974,532.045c-27.5,5.583-34.472,39.944-12.576,61.849l85.068,85.049l84.13,84.136
			c21.902,21.899,56.253,14.918,61.833-12.573l21.812-107.252c-36.597-45.215-53.464-48.616-81.001-51.109
			c-10.059-0.902-21.546-1.701-35.944-4.363c-44.253-6.824-61.531-37.429-59.667-68.685L343.974,532.045z"/>
		<path style="fill:#FFFFFF;" d="M568.469,526.066c-4.575,0.645-8.993,2.651-12.54,6.182c-3.51,3.534-5.532,7.956-6.161,12.546
			c-0.944,6.639,1.065,13.62,6.161,18.725c8.654,8.642,22.647,8.642,31.289,0c8.636-8.633,8.619-22.629,0-31.271
			C582.099,527.143,575.115,525.134,568.469,526.066z"/>
		<path style="fill:#AAD4C8;" d="M611.173,449.317c-5.702,5.683-5.702,14.9-0.012,20.577c2.518,2.53,5.75,3.864,9.054,4.152
			c4.139,0.354,8.388-0.987,11.535-4.152c3.159-3.159,4.515-7.401,4.152-11.535c-0.302-3.304-1.622-6.524-4.14-9.048
			C626.067,443.628,616.861,443.634,611.173,449.317z"/>
		<path style="fill:#FFFFFF;" d="M670.991,465.809c-3.861,3.846-3.861,10.089,0,13.944c3.855,3.849,10.101,3.849,13.944,0
			c3.855-3.855,3.855-10.101,0-13.95C681.092,461.953,674.846,461.953,670.991,465.809z"/>
		<path style="fill:#F0EDE2;" d="M649.688,338.558c-1.864-1.876-4.914-1.876-6.784,0l-0.079,0.067c-1.858,1.876-1.858,4.914,0,6.787
			l53.155,53.14l53.083,53.086c1.864,1.879,4.914,1.876,6.79,0l0.06-0.064c1.877-1.876,1.877-4.914,0-6.793l-53.076-53.086
			L649.688,338.558z"/>
		<path style="fill:#FFFFFF;" d="M761.482,568.325c-2.324-0.678-4.745,0.654-5.429,2.972c-1.162,3.982-1.919,8.793-1.919,14.023
			c0,7.867,1.75,16.761,6.827,24.789c5.042,8.031,13.52,14.991,26.048,18.813c2.3,0.711,7.529-0.777,8.255-3.096
			c0.697-2.312-0.29-7.774-2.59-8.485c-10.785-3.347-19.875-8.788-23.87-15.061c-4-6.27-5.931-10.37-5.907-16.961
			c-0.024-4.36,0.641-8.415,1.573-11.559C765.149,571.438,763.818,569.003,761.482,568.325z"/>
	</g>
</g>
</svg>
