<?xml version="1.0" encoding="UTF-8"?>
<svg id="Layer_1" data-name="Layer 1" xmlns="http://www.w3.org/2000/svg" xmlns:xlink="http://www.w3.org/1999/xlink" viewBox="0 0 313.55 380.08">
  <defs>
    <style>
      .cls-1 {
        mask: url(#mask);
      }

      .cls-2, .cls-3, .cls-4, .cls-5 {
        fill-rule: evenodd;
      }

      .cls-2, .cls-6 {
        fill: #d8cefe;
      }

      .cls-7 {
        fill: url(#radial-gradient-5);
      }

      .cls-8 {
        fill: url(#radial-gradient-4);
      }

      .cls-9 {
        fill: url(#radial-gradient-3);
      }

      .cls-10 {
        fill: url(#radial-gradient-2);
      }

      .cls-3 {
        fill: #9b64ff;
      }

      .cls-11 {
        fill: url(#radial-gradient);
      }

      .cls-12 {
        mask: url(#mask-2);
      }

      .cls-13 {
        mask: url(#mask-3);
      }

      .cls-14 {
        mask: url(#mask-4);
      }

      .cls-15 {
        mask: url(#mask-1);
      }

      .cls-4 {
        fill: #9b64e3;
      }

      .cls-16, .cls-5 {
        fill: #2b0261;
      }

      .cls-17 {
        fill: #e6d7fc;
      }

      .cls-18 {
        fill: #b07af6;
      }
    </style>
    <radialGradient id="radial-gradient" cx="16.87" cy="467.15" fx="16.87" fy="467.15" r="23.93" gradientTransform="translate(202.91 1502.76) scale(2.84 -2.84)" gradientUnits="userSpaceOnUse">
      <stop offset="0" stop-color="#fff" stop-opacity=".5"/>
      <stop offset="1" stop-color="#fff"/>
    </radialGradient>
    <mask id="mask" x="187.82" y="103.57" width="126.01" height="145.1" maskUnits="userSpaceOnUse">
      <g id="id0">
        <rect class="cls-11" x="187.82" y="103.57" width="126.01" height="145.1"/>
      </g>
    </mask>
    <radialGradient id="radial-gradient-2" cx="-24.37" cy="482.8" fx="-24.37" fy="482.8" r="0" gradientTransform="translate(202.91 1502.76) scale(2.84 -2.84)" gradientUnits="userSpaceOnUse">
      <stop offset="0" stop-color="#fff" stop-opacity=".5"/>
      <stop offset="1" stop-color="#fff"/>
    </radialGradient>
    <mask id="mask-1" x="133.42" y="131.39" width="32.66" height="119.27" maskUnits="userSpaceOnUse">
      <g id="id2">
        <rect class="cls-10" x="133.42" y="131.39" width="32.66" height="119.27"/>
      </g>
    </mask>
    <radialGradient id="radial-gradient-3" cx="-683.55" cy="333.01" fx="-683.55" fy="333.01" r="4.13" gradientTransform="translate(202.91 1502.76) scale(2.84 -2.84)" gradientUnits="userSpaceOnUse">
      <stop offset="0" stop-color="#fff" stop-opacity=".5"/>
      <stop offset="1" stop-color="#fff"/>
    </radialGradient>
    <mask id="mask-2" x="133.42" y="103.01" width="180.29" height="127.69" maskUnits="userSpaceOnUse">
      <g id="id4">
        <rect class="cls-9" x="133.42" y="103.01" width="180.29" height="127.69"/>
      </g>
    </mask>
    <radialGradient id="radial-gradient-4" cx="9.68" cy="483.16" fx="9.68" fy="483.16" r="0" gradientTransform="translate(202.91 1502.76) scale(2.84 -2.84)" gradientUnits="userSpaceOnUse">
      <stop offset="0" stop-color="#fff" stop-opacity=".5"/>
      <stop offset="1" stop-color="#fff"/>
    </radialGradient>
    <mask id="mask-3" x="230.12" y="130.36" width="32.66" height="90.94" maskUnits="userSpaceOnUse">
      <g id="id6">
        <rect class="cls-8" x="230.12" y="130.36" width="32.66" height="90.94"/>
      </g>
    </mask>
    <radialGradient id="radial-gradient-5" cx="9.68" cy="473.28" fx="9.68" fy="473.28" r="0" gradientTransform="translate(202.91 1502.76) scale(2.84 -2.84)" gradientUnits="userSpaceOnUse">
      <stop offset="0" stop-color="#fff" stop-opacity=".5"/>
      <stop offset="1" stop-color="#fff"/>
    </radialGradient>
    <mask id="mask-4" x="230.12" y="158.43" width="32.66" height="92.24" maskUnits="userSpaceOnUse">
      <g id="id8">
        <rect class="cls-7" x="230.12" y="158.43" width="32.66" height="92.24"/>
      </g>
    </mask>
  </defs>
  <path class="cls-16" d="M29.33,194.7c-.45,68.47,46.38,132.45,101.18,165.23-43.65-12.98-73.51-33.37-94.87-59.09C13.21,269.65,0,231.39,0,190.04,0,85.08,85.08,0,190.04,0c10.58,0,20.96.88,31.07,2.54C118.03,3.28,30.03,90.01,29.33,194.7h0Z"/>
  <path class="cls-6" d="M34.43,299.14c5.51,6.61,10.95,11.86,18.19,18.82,11.38,10.95,42.44,30.58,67.59,38.08,42.43,12.65,142.74,6.05,186.15-15.71-32.14,24.91-72.49,39.75-116.31,39.75-64.36,0-121.23-32-155.61-80.94h0Z"/>
  <path class="cls-17" d="M295.2,31.74c-36.67-18.74-84.58-22.34-122.98-12.18-41.72,10.97-71.9,33.05-96.46,67.73-1.1,1.55-2.17,3.11-3.2,4.68C97.41,35.72,156.05.39,217.15,1.93c28.56,4.08,55.06,14.5,78.05,29.8h0Z"/>
  <path class="cls-18" d="M165.33,9.51C100.84,38.33,53.34,115.54,50.66,183.72c-1.04,23.29,1.04,39.61,7.12,58.15,42.97,132.36,189.4,115.15,190.06,115.08.07,0-3.9,1.56-7.21,2.64-29.08,8.6-64.03,10.01-91.77,4.67-9.57-1.8-21.17-5.65-30-8.62C-26.95,274.28,14.94,49.72,165.33,9.51h0Z"/>
  <g class="cls-1">
    <path class="cls-3" d="M198,248.4l-9.9-17.97h0c.33-1.38,33.9-126.57,124.84-126.57.2,0,.41,0,.61,0,0,0-23.44,1.54-51.05,26.79-10.45,9.55-21.49,22.5-32.09,40.04-11.85,19.6-23.13,44.95-32.4,77.71h0Z"/>
  </g>
  <g class="cls-15">
    <polygon class="cls-4" points="133.71 131.68 165.8 189.94 165.8 250.38 133.71 250.38 133.71 131.68"/>
  </g>
  <g class="cls-12">
    <path class="cls-5" d="M192.62,180.37l-26.82-48.7h-32.09v.03l32.09,58.25,22.3,40.46s0-.02,0-.04c.38-1.52,10.11-37.27,32.77-70.38,19.9-29.09,49.78-56.15,92.05-56.15.16,0,.33,0,.49,0l-6.79-.43c-.34-.02-.68-.04-1.02-.05-1.54-.05-3.05-.08-4.55-.08-23.18,0-41.76,6.07-56.5,14.84-6.04,3.59-11.43,7.64-16.24,11.9-25.85,22.93-35.71,50.34-35.71,50.34h0Z"/>
  </g>
  <g class="cls-13">
    <path class="cls-2" d="M230.4,170.69v50.33s32.09-62.31,32.09-62.31v-28.07c-10.45,9.56-21.49,22.49-32.09,40.05h0Z"/>
  </g>
  <g class="cls-14">
    <polygon class="cls-4" points="262.5 158.71 230.4 221.02 230.4 250.39 262.5 250.39 262.5 158.71"/>
  </g>
</svg>