<?xml version="1.0" encoding="UTF-8"?>
<svg id="Layer_1" data-name="Layer 1" xmlns="http://www.w3.org/2000/svg" viewBox="0 0 385 383.16">
  <defs>
    <style>
      .cls-1 {
        fill: #f6d0ff;
        stroke: #220d86;
        stroke-miterlimit: 10;
      }

      .cls-2 {
        fill: #030388;
      }

      .cls-3 {
        fill: #050589;
      }

      .cls-4 {
        fill: #020288;
      }
    </style>
  </defs>
  <path class="cls-1" d="M26.75,225.22c4.97-.21,10.02.06,15,0,7.49-.09,15.01.04,22.5,0,4.99-.02,10.01.01,15,0,35.24-.11,70.51.03,105.75,0,4.99,0,10.01,0,15,0,35.24.03,70.51-.11,105.75,0,4.99.01,10.01-.02,15,0,7.49.04,15.01-.09,22.5,0,4.98.06,10.03-.21,15,0,14.02.59,22.01,4.77,26.25,18.71v7.49c-2,8.88-9.26,17.58-18.75,18.71-4.72.57-13.83.7-18.75.75-101.68,1.03-204.53.1-306.46-.8-1.36-.01-2.4.8-2.54.8-4.92-.05-14.03-.18-18.75-.75-9.39-1.13-16.16-9.44-18.75-17.96v-8.23c4.25-14.07,12.21-18.12,26.25-18.71Z"/>
  <path class="cls-2" d="M38,270.88c6,7.97,10.95,21.2,22.12,22.46l263.28.03c12.69-.37,16.98-14.01,23.59-22.49,4.92-.05,14.03-.18,18.75-.75-11.68,15.97-20.96,40.44-45,38.17v29.95c29.79-2.37,36.34,37.47,7.5,44.91h-69.75c-5.58-2.87-11.23-5.79-14.28-11.58-9.01-17.12,4.69-35.17,23.28-33.34v-29.94H117.5v29.94c29.63-2.32,36.13,37.33,7.5,44.91H55.25c-6.85-3.11-13.1-7.07-15.8-14.55-5.96-16.56,7.74-32.32,24.8-30.36v-29.95c-24.21,2.18-33.13-22.1-45-38.17,4.72.57,13.83.7,18.75.75ZM102.5,308.3h-23.25v29.94h23.25v-29.94ZM305.75,308.3h-23.25v29.94h23.25v-29.94ZM58.78,353.37c-7.88,3.16-7.32,12.41.64,14.77h62.91c8.35-2.46,8.34-12.43,0-14.89l-63.55.11ZM262.03,353.37c-7.88,3.16-7.32,12.41.64,14.77h62.91c8.35-2.46,8.34-12.43,0-14.89l-63.55.11Z"/>
  <path class="cls-4" d="M26.75,225.22l-.03-201.01c4.82-35.61,55.06-30.25,52.52,5.64h226.07c-1.44-34.9,45.9-41.69,52.85-7.03l.08,202.4c-4.97-.21-10.02.06-15,0l.02-200.25c-2.7-13.53-19.87-13.31-22.53,0l.02,200.25c-4.99-.02-10.01.01-15,0V74.76h-49.5c.12,13.7-9.29,25.62-22.4,29.3-.85,1.32.35,26.5-.07,31-.78,8.5-8.19,8.25-15.04,7.82,1.32,12.55-6.17,25.37-18.66,28.53l-.09,53.81c-4.99,0-10.01,0-15,0l-.09-53.81c-12.49-3.16-19.97-15.98-18.66-28.53-6.85.43-14.26.68-15.04-7.82-.41-4.5.78-29.68-.07-31-13.04-3.67-22.72-15.63-22.4-29.3h-49.5v150.46c-4.99.01-10.01-.02-15,0l.02-200.25c-2.7-13.53-19.87-13.31-22.53,0l.02,200.25c-4.98.06-10.03-.21-15,0ZM305.75,44.82H79.25v14.97h226.5v-14.97ZM241.25,74.76h-97.5c-.27,7.19,4.87,13.27,11.8,14.79,23.1-.98,48.24,1.92,71.1.21,8.7-.65,14.52-6.19,14.59-15ZM218.75,104.7h-52.5v23.2h52.5v-23.2ZM203.75,142.88h-22.5c-2.13,19.73,24.64,19.72,22.5,0Z"/>
  <path class="cls-3" d="M217.48,208.52c-2.41-2.13-3.17-6.09-1.63-9.03.77-1.48,15.93-16.62,17.89-18.07,7.3-5.4,15.19,1.84,11.17,9.65-.72,1.4-15.27,15.94-17.14,17.33-3.07,2.27-7.18,2.86-10.28.13Z"/>
  <path class="cls-3" d="M167.52,208.52c-3.1,2.73-7.21,2.15-10.28-.13-1.87-1.39-16.42-15.93-17.14-17.33-4.02-7.81,3.87-15.06,11.17-9.65,3.04,2.25,12.33,11.23,15,14.22,3.38,3.78,5.88,8.8,1.25,12.88Z"/>
</svg>