<?xml version="1.0" encoding="UTF-8"?>
<svg id="Layer_1" data-name="Layer 1" xmlns="http://www.w3.org/2000/svg" viewBox="0 0 345.27 383.23">
  <defs>
    <style>
      .cls-1 {
        fill: #fff;
      }
    </style>
  </defs>
  <path class="cls-1" d="M69.89,257.48c-3.11,2.57-10.09,4.73-12.76,7.12-.44.4-.84.67-.64,1.35l30.31,52.88,62.58,34.84-43.48-75.99c8.78,4.88,18.11,8.99,26.25,14.97l42.43,73.34,31.82-17.21-22.5-39.66c4.41-2.42,9.22-5.12,13.5-7.49l21.82,38.88,32.14-17.65-22.46-39.2c4.47-2.48,9.08-5.03,13.5-7.49l22.98,38.82,31.7-17.47-22.42-39.31c5.44-3.04,11.24-6.04,16.5-8.98l51.27,28.55c3.42,3.15,3.6,7.43.8,11.06l-168.32,94.37h-5.25L2.07,288.86c-2.8-3.63-2.62-7.91.8-11.06l51.27-28.55c4.96,2.77,10.61,5.36,15.75,8.23ZM321.89,282.94c-3.58-.5-20.78-12.53-22.5-11.23l10.51,18.7c.5.37,9.81-5.03,11.02-5.81.74-.47,1.34.08.96-1.67ZM43.58,273.25c-1.06-.76-16.96,8.04-19.22,9.5-.73.47-1.34-.08-.96,1.67l37.13,20.21-16.94-31.37Z"/>
  <path class="cls-1" d="M54.89,196.1c-15.34-8.59-35.1-18.01-49.25-27.57-5.59-3.78-7.94-7.62-2.77-13.49l43.77-24.44-6.25-4.24L2.45,105.09c-6.63-9.06,1.9-12.31,8.44-16.17C63.18,58.05,117.77,30.69,170.37.33c4.56-1.5,8.47,2.48,12.53,4.01,49.69,29.49,101.86,55.06,151.5,84.58,6.52,3.88,15.07,7.07,8.44,16.17l-37.95,21.26-6.25,4.24,43.77,24.44c4.92,5.44,3.04,9.54-2.29,13.22-14.11,9.72-32.64,16.87-47.28,26.2l-1.69,1.65c-37.32,18.21-72.75,42.08-109.75,60.76-2.16,1.09-6.19,3.58-8.4,3.67-2.65.11-6.63-2.39-9.11-3.67-36.29-18.63-73.22-40.72-109-60.76ZM321.89,98.8L172.95,16.43l-1.76.4c-46.1,26.99-93.94,51.14-140.05,78.08-1.38.81-7.3,3.69-6.99,4.99l148.81,82.74,147.97-82.17.96-1.67ZM232.84,166.36l-36.58,64.91,61.53-34.4c8.93-16.63,20.5-32.92,28.98-49.67.54-1.07,2.51-3.93,1.81-5.01-2.35-1.07-4.52-3.77-7.2-2.66l-48.54,26.83ZM99.09,158.73l-32.19-17.27-18.75,33.26,32.94,17.59,18.01-33.58ZM45.14,148.95c-6.84,3.38-14.37,6.95-20.78,11.04-.73.47-1.34-.08-.96,1.67l11.99,6,9.76-18.71ZM321.89,160.18c-3.5-.33-18.07-11.14-20.16-9.65l-17.32,30.98,37.48-21.33ZM126.08,217.76l18-33.15-31.07-17.62-19.07,33.11,32.14,17.65ZM138.89,226.03l31.82,17.21,35.66-61c-8.84,2.97-16.67,8.97-24.98,13.24-1.89.97-5.89,3.37-7.7,3.6-4.93.63-14.11-7.66-16.07-6.41l-18.74,33.36Z"/>
  <path class="cls-1" d="M291.14,196.1l45.74,26.57-44.51,25.2c-.61.16-.98,1.24-1.22,1.37-5.26,2.94-11.06,5.94-16.5,8.98-10.73,6-21.51,11.99-32.25,17.96-4.42,2.46-9.03,5-13.5,7.49-10.54,5.86-21.01,12.15-31.5,17.96-4.28,2.37-9.09,5.07-13.5,7.49-.3.16-1.37,0-2.17.43-2.45,1.32-7.6,5.29-10.01,4.68l-39.57-21.57c-8.14-5.98-17.47-10.09-26.25-14.97-12.01-6.68-24-13.5-36-20.21-5.14-2.88-10.79-5.46-15.75-8.23-1.44-.81-3.61-2.82-5.5-3.87-13.63-7.63-27.38-15.1-41.01-22.7l47.26-26.57c35.77,20.04,72.71,42.13,109,60.76,2.49,1.28,6.46,3.78,9.11,3.67,2.21-.09,6.24-2.58,8.4-3.67,36.99-18.68,72.43-42.55,109.75-60.76Z"/>
  <polygon class="cls-1" points="275.39 98.8 274.92 100.35 172.9 157.01 69.89 99.9 79.89 93.42 172.39 42.07 275.39 98.8"/>
</svg>