<?xml version="1.0" encoding="UTF-8"?>
<svg id="Layer_1" data-name="Layer 1" xmlns="http://www.w3.org/2000/svg" viewBox="0 0 334.5 383.28">
  <defs>
    <style>
      .cls-1 {
        fill: #e1c3fe;
      }

      .cls-2 {
        fill: #040489;
      }

      .cls-3 {
        fill: #060689;
      }
    </style>
  </defs>
  <path class="cls-2" d="M169.46,383.28h-5.25c-5.01-3.66-10.61-6.76-16-9.86-46.07-26.52-94.4-52.29-139.48-80.11-3.17-1.96-7.04-3.5-8.59-7.15l-.15-188.41c.62-2.71,2.54-3.76,4.53-5.21,12.66-9.26,31.28-17.17,44.93-25.14,5.21,1.81,9.57,5.53,14.25,8.23l-40.03,23.14-.47,1.55,143.81,82.25,41.44-23.1c.32.19,1.79.01,2.76.58,1.72,1.01,3.39,2.15,5.13,3.15.84,1.37.31,6.87.36,8.99l-42,24.33v165.8l144.75-83.46V113.06l-45,25.45c-.05-2.26.49-6.46-.37-8.24-.64-1.34-4.15-2.5-5.62-3.41-.69-.43-.68-1.77-.76-1.83l43.03-24.64.47-1.54L167.02,16.61l-44.81,25.35c-4.82-2.77-10.41-4.87-15-8.23,17.25-9.84,35.14-22,52.75-30.82,2.78-1.39,5.65-3.55,8.95-2.71l156.31,89.54c3.34,2.39,7.98,3.6,9.21,8.03l.08,185.64c.03,1.66-.48,3.25-1.37,4.62-1.68,2.6-13.38,8.71-16.92,10.81-48.51,28.81-98.24,55.66-146.75,84.46ZM159.71,362.33v-165.8L14.96,113.06v165.8l144.75,83.46Z"/>
  <path class="cls-1" d="M107.21,33.72c4.59,3.36,10.18,5.47,15,8.23,44.44,25.51,88.6,51.62,133,77.23,3.66,2.11,9.97,4.32,12.5,5.86.08.05.07,1.4.76,1.83,1.46.91,4.97,2.07,5.62,3.41.86,1.78.32,5.98.37,8.24.46,19.18-.35,38.45,0,57.64l-26.25-4.91-31.5,37.84c-.35-18.94.44-37.96,0-56.89-.05-2.12.48-7.63-.36-8.99-1.74-1-3.41-2.14-5.13-3.15-.97-.57-2.44-.39-2.76-.58-47.58-28.69-96.5-55.91-144.75-83.84-4.68-2.71-9.04-6.43-14.25-8.23,18.62-10.87,38.49-22.7,57.75-33.68Z"/>
  <path class="cls-3" d="M35.79,255.42c2.48-.32,6.1,2.01,8.44,3.22,7.37,3.8,24.5,12.84,30.36,17.61,7.89,6.44,2.03,16.63-6.79,13.51-5.07-1.79-30.76-16.73-35.21-20.25-5.82-4.6-3.61-13.22,3.2-14.09Z"/>
  <path class="cls-3" d="M35.79,221.74c1.77-.22,2.57.22,4.1.81,2.5.96,19.21,10.64,20.76,12.21,5.59,5.66.46,14.84-7.46,12.69-2.48-.67-18.92-10.13-21-11.98-5.32-4.72-2.98-12.93,3.6-13.74Z"/>
</svg>