<?xml version="1.0" encoding="UTF-8"?>
<svg id="Layer_1" data-name="Layer 1" xmlns="http://www.w3.org/2000/svg" viewBox="0 0 10.17 16.1">
  <path d="M7.14,3.37v1.16h1.25c.6,0,1.35.71,1.57,1.24s.42,1.81-.44,1.74c-.65-.05-.45-.73-.53-1.13-.2-1.12-1.72-.62-2.49-.74-.15-.03-.48-.24-.48-.4v-1.84h-1.9v1.84c0,.16-.33.37-.48.4-.59.1-1.65-.16-2.12.17-.13.09-.39.44-.39.59v2.16c.14-.05.27-.12.41-.17.68-.21,1.34-.27,2.05-.13,1.87.35,2.76,2.37,4.99,1.27.29-.14.69-.54.99-.53.29,0,.51.22.55.49-.1,1.54.13,3.25,0,4.77-.09.93-.87,1.74-1.81,1.85H1.81c-.97-.12-1.74-.94-1.81-1.91v-7.79c-.01-.78.96-1.88,1.74-1.88h1.25v-1.16C1,3.16,1.04.18,3.04.03c1.33-.1,2.77.08,4.11,0,1.95.29,1.94,3.08-.02,3.33ZM3.05,1.16c-.51.13-.58.85-.09,1.05.28.12.42.03.67.03.94-.01,1.88-.01,2.82,0,.26,0,.4.09.68-.02.53-.19.46-.96-.09-1.07h-4ZM9,10.56c-1.02.5-2.21.5-3.25.07-.82-.34-1.42-1.05-2.31-1.24-.58-.13-1.14-.09-1.7.13-.11.04-.52.25-.59.33-.03.03-.04.06-.04.1v4.21c.06.37.31.69.68.8l6.41.02c.31,0,.79-.47.79-.75v-3.67Z"/>
</svg>