<?xml version="1.0" encoding="UTF-8"?>
<svg id="Layer_1" data-name="Layer 1" xmlns="http://www.w3.org/2000/svg" viewBox="0 0 384 383.28">
  <defs>
    <style>
      .cls-1 {
        fill: #5252ad;
      }

      .cls-2 {
        fill: #4444a6;
      }

      .cls-3 {
        fill: #e1c3fe;
      }

      .cls-4 {
        fill: #1a1a93;
      }

      .cls-5 {
        fill: #050589;
      }
    </style>
  </defs>
  <path class="cls-3" d="M.14,180.42c0-.11.72-.85.78-1.81.49-6.9.76-13.82,2.22-20.65h71.97c-10.69,39.06-1.86,82.06,24.76,112.63,40.98,47.07,110.57,56.62,161.9,20.2l-25.49-27.29,110.2-11.24-10.5,110.03-2.66-.71-20.96-20.27c-29.43,22.62-64.69,37.67-101.95,41.19-2.22.21-5.32.65-7.12.75h-25.49c-6.93-1.64-14.12-1.94-21.13-3.23C76.48,365.32,12.06,298.43,1.73,217.38c-.6-4.7-.35-9.97-1.6-14.5.32-7.42-.43-15.05,0-22.46Z"/>
  <path class="cls-5" d="M383.96,176.68v4.49c-1.24.81-.75,3.08-.75,4.49s-.49,3.68.75,4.49v2.99c-1.24.8-.76,3.09-.75,4.49,0,1.2-.44,3.12.75,3.74-.09,1.73.13,3.52,0,5.24-.01.14-.64.59-.69,1.19-.58,6.26.5,14.81-6.59,17.37l-59.85.19c-10.19-2.6-4.87-12.84-4.19-19.96,9.72-100.44-95.75-168.7-183.05-117.66l-7.25,5.45c5.39,7.62,27.19,19.18,12.15,27.9l-90.54,9.21c-3.8-.4-5.61-3.75-6.29-7.2l9.01-86.71c6.04-18.04,17.29-.05,25.05,5.58,68.68-54.86,167.33-56.18,237.18-2.57,42.34,32.49,70.9,83.87,75.04,137.28ZM368.21,210.37c2.08-24.52-.13-48.79-7.48-72.25C327.39,31.72,202.16-16.9,104.59,38.07c-10.85,6.12-19.14,14.57-28.77,20.68-7.31,4.64-10.54-1.36-15.7-5.58l-6,61.38,60.71-5.99c1.08-.97-8.47-9.27-9.38-10.46-6.65-8.64.82-12.64,7.35-17.4,43.47-31.7,104.05-33.42,149.95-5.68,45.84,27.71,72.61,81.89,64.24,135.34h41.23Z"/>
  <path class="cls-1" d="M383.96,185.66h-.75c0-1.41-.49-3.68.75-4.49v4.49Z"/>
  <path class="cls-4" d="M383.96,190.16c-1.24-.81-.75-3.08-.75-4.49h.75v4.49Z"/>
  <path class="cls-4" d="M383.96,197.64h-.75c-.01-1.4-.49-3.69.75-4.49v4.49Z"/>
  <path class="cls-2" d="M383.96,201.38c-1.19-.63-.74-2.54-.75-3.74h.75v3.74Z"/>
</svg>