<?xml version="1.0" encoding="UTF-8"?>
<svg id="Layer_1" data-name="Layer 1" xmlns="http://www.w3.org/2000/svg" viewBox="0 0 384 382.87">
  <defs>
    <style>
      .cls-1 {
        fill: #fff;
      }
    </style>
  </defs>
  <path class="cls-1" d="M384,65.49v3.74l-24,32.55-3.52,2.47-232.11.15c-5.02,7.26-10.98,13.58-18.29,18.59-35.98,24.65-86.11,8.89-101.47-31.66-2.18-5.76-3.12-11.65-4.48-17.61.28-4.12-.39-8.67,0-12.73C5.78,1.91,78.19-21.02,118.97,22.81c1.75,1.88,3.68,6.27,6,6.73l229.98.19,2.74,1.01,26.3,34.75ZM61.45,14.81C24.77,18.58,3.99,60.06,21.48,92.45c19.25,35.64,70.41,36.7,91.42,2.17,23.1-37.95-7.69-84.32-51.45-79.81ZM132.08,90.19h217.8l16.88-22.82-16.88-22.84h-217.8c2.56,10.67,4.39,20.74,2.91,31.73-.63,4.7-2.41,9.22-2.91,13.93Z"/>
  <path class="cls-1" d="M.12,308.76l4.48-17.61c19.46-51.38,89.71-58.68,119.76-13.07l232.11.15,3.52,2.47,24,32.55v3.74l-26.3,34.75-2.74,1.01-229.98.19c-2.32.46-4.25,4.85-6,6.73-9.47,10.18-21.28,17.97-35,21.19-3.45.81-7.03.94-10.37,2h-12c-3.92-1.17-8.01-1.52-11.99-2.62-21.14-5.87-39.88-23.28-46.28-44.37-1.43-4.72-1.89-9.66-3.21-14.38v-12.73ZM64.45,262.58c-69.85,4.55-62.25,110.93,8.01,105.31,67.97-5.44,60.88-109.79-8.01-105.31ZM132.08,337.95h217.8l16.88-22.84-16.88-22.82h-217.8c4.21,15.39,4.39,30.28,0,45.66Z"/>
  <path class="cls-1" d="M384,185.25v11.98c-5.27,47.9-56.21,76.52-99.73,53.54-46.78-24.71-47.56-92.35-1.5-118.3,42.62-24.01,96.91,4.16,101.23,52.79ZM308.11,139.05c-26.17,3.13-46.45,29.54-44.72,55.46,3.19,47.86,64.67,67.34,94.34,29.26,29.71-38.14-1.7-90.46-49.62-84.72Z"/>
  <path class="cls-1" d="M43.39,183.91l182.8-.17c9.68,1.15,9.66,13.86,0,15.01l-183.89-.58c-6.58-3.83-5.86-11.4,1.09-14.25Z"/>
  <path class="cls-1" d="M158.15,59.7l179.75-.2c10.01.22,11.86,13.76,1.51,14.99l-184.64-.59c-6.96-4.07-4.37-13.34,3.38-14.21Z"/>
  <path class="cls-1" d="M60.1,90.19v-34.43c-6.32,8.31-18.81,1.36-13.38-7.75,1.18-1.98,14.81-15.52,16.88-16.82,4.91-3.09,10.31-.94,11.53,4.7l.07,53.07c1.09,3.34,11.38-2,14.32,5.16,1.74,4.23-.3,9.49-5.1,10.25-9.97,1.58-23.88-.95-34.29-.12-6.58-1.97-6.21-12.95.63-14.02,2.89-.45,6.36.22,9.33-.04Z"/>
  <path class="cls-1" d="M155.86,308.17l183.55-.18c10.81,1.9,8.23,15.09-2.24,15.02h-177c-9.38.33-13.52-10.82-4.31-14.84Z"/>
  <path class="cls-1" d="M75.85,322.98h-15.37c-6.22,0-10.13-8-5.66-12.93.39-.43,3.21-2.04,3.41-2.04h16.49l1.12-1.12v-13.47l-1.12-1.12h-24.74c-4.57,0-7.48-12.89.79-14.18,5.25-.82,28.41-.83,33.65,0,3.74.59,5.39,3.65,5.7,7.03,1.77,19.26-1.42,41.16,0,60.7.19,4.76-3.76,6.61-7.91,7.08-5.39.6-25.72.81-30.57-.17-5.08-1.03-8.09-6.97-5.05-11.44.51-.75,3.52-3.36,4.12-3.36h23.99l1.12-1.12v-13.85Z"/>
  <path class="cls-1" d="M308.27,198.73v14.97h24.37c.48,0,3.94,2.29,4.48,3.01,3.39,4.45,1.39,9.31-3.32,11.63-10.42-.29-23.26,1.54-33.42.35-3.62-.42-5.96-2.86-6.37-6.36-.8-6.78-.79-25.43,0-32.22.3-2.58,3.29-6.35,5.64-6.35h24.37v-14.97h-23.62c-.41,0-3.98-1.73-4.52-2.22-3.66-3.28-2.11-10.7,2.61-12.41,10.41.29,23.27-1.54,33.42-.35,4.3.51,6.65,3.86,7.11,7.88.74,6.43.73,22.76,0,29.19-.34,3.02-3.04,7.86-6.37,7.86h-24.37Z"/>
</svg>