<?xml version="1.0" encoding="UTF-8"?>
<svg xmlns="http://www.w3.org/2000/svg" viewBox="0 0 572.6 819.21">
  <defs>
    <style>
      .cls-1 {
        fill: #040000;
      }

      .cls-2 {
        fill: #fff;
      }

      .cls-3 {
        fill: #663695;
      }
    </style>
  </defs>
  <g id="Layer_1" data-name="Layer 1">
    <rect class="cls-3" x="-284.54" y="368.49" width="799.41" height="85.04" transform="translate(526.17 295.84) rotate(90)"/>
    <rect class="cls-3" x="-172.26" y="368.49" width="799.41" height="85.04" transform="translate(638.45 183.56) rotate(90)"/>
    <rect class="cls-3" x="-70.89" y="368.49" width="799.41" height="85.04" transform="translate(739.83 82.19) rotate(90)"/>
    <rect class="cls-3" x="49.56" y="368.49" width="799.41" height="85.04" transform="translate(860.27 -38.26) rotate(90)"/>
  </g>
  <g id="ScanNCut_Link_R1_R4" data-name="ScanNCut Link R1_R4">
    <g id="R1">
      <g>
        <rect class="cls-2" width="45.4" height="51"/>
        <circle id="_CENTER_" data-name="=CENTER=" class="cls-1" cx="22.7" cy="28.3" r="2.8"/>
        <path class="cls-1" d="M22.7,36.8c-4.7,0-8.5-3.8-8.5-8.5s3.8-8.5,8.5-8.5,8.5,3.8,8.5,8.5-3.8,8.5-8.5,8.5ZM22.7,22.7c-3.1,0-5.7,2.5-5.7,5.7s2.5,5.7,5.7,5.7,5.7-2.5,5.7-5.7c-.1-3.2-2.6-5.7-5.7-5.7Z"/>
        <path class="cls-1" d="M22.7,42.5c-7.8,0-14.2-6.4-14.2-14.2s6.4-14.2,14.2-14.2,14.2,6.4,14.2,14.2-6.4,14.2-14.2,14.2ZM22.7,17c-6.3,0-11.3,5.1-11.3,11.3s5.1,11.3,11.3,11.3,11.3-5,11.3-11.3-5.1-11.3-11.3-11.3Z"/>
        <rect class="cls-1" x="8.5" y="8.5" width="28.3" height="2.8"/>
      </g>
    </g>
    <g id="R2">
      <g>
        <rect class="cls-2" x="527.2" width="45.4" height="51"/>
        <circle id="_CENTER_-2" data-name="=CENTER=" class="cls-1" cx="549.9" cy="28.3" r="2.8"/>
        <path class="cls-1" d="M549.9,36.8c-4.7,0-8.5-3.8-8.5-8.5s3.8-8.5,8.5-8.5,8.5,3.8,8.5,8.5-3.8,8.5-8.5,8.5ZM549.9,22.7c-3.1,0-5.7,2.5-5.7,5.7s2.5,5.7,5.7,5.7,5.7-2.5,5.7-5.7c-.1-3.2-2.6-5.7-5.7-5.7Z"/>
        <path class="cls-1" d="M549.9,42.5c-7.8,0-14.2-6.4-14.2-14.2s6.4-14.2,14.2-14.2,14.2,6.4,14.2,14.2-6.4,14.2-14.2,14.2ZM549.9,17c-6.3,0-11.3,5.1-11.3,11.3s5.1,11.3,11.3,11.3,11.3-5,11.3-11.3-5.1-11.3-11.3-11.3Z"/>
        <rect class="cls-1" x="535.7" y="8.5" width="28.3" height="2.8"/>
      </g>
    </g>
    <g id="R3">
      <g>
        <rect class="cls-2" x="527.2" y="768.21" width="45.4" height="51"/>
        <circle id="_CENTER_-3" data-name="=CENTER=" class="cls-1" cx="549.9" cy="796.51" r="2.8"/>
        <path class="cls-1" d="M549.9,805.01c-4.7,0-8.5-3.8-8.5-8.5s3.8-8.5,8.5-8.5,8.5,3.8,8.5,8.5-3.8,8.5-8.5,8.5ZM549.9,790.91c-3.1,0-5.7,2.5-5.7,5.7s2.5,5.7,5.7,5.7,5.7-2.5,5.7-5.7c-.1-3.2-2.6-5.7-5.7-5.7Z"/>
        <path class="cls-1" d="M549.9,810.71c-7.8,0-14.2-6.4-14.2-14.2s6.4-14.2,14.2-14.2,14.2,6.4,14.2,14.2-6.4,14.2-14.2,14.2ZM549.9,785.21c-6.3,0-11.3,5.1-11.3,11.3s5.1,11.3,11.3,11.3,11.3-5,11.3-11.3-5.1-11.3-11.3-11.3Z"/>
        <rect class="cls-1" x="535.7" y="776.71" width="28.3" height="2.8"/>
      </g>
    </g>
    <g id="R4">
      <g>
        <rect class="cls-2" x="0" y="768.21" width="45.4" height="51"/>
        <circle id="_CENTER_-4" data-name="=CENTER=" class="cls-1" cx="22.7" cy="796.51" r="2.8"/>
        <path class="cls-1" d="M22.7,805.01c-4.7,0-8.5-3.8-8.5-8.5s3.8-8.5,8.5-8.5,8.5,3.8,8.5,8.5-3.8,8.5-8.5,8.5ZM22.7,790.91c-3.1,0-5.7,2.5-5.7,5.7s2.5,5.7,5.7,5.7,5.7-2.5,5.7-5.7c-.1-3.2-2.6-5.7-5.7-5.7Z"/>
        <path class="cls-1" d="M22.7,810.71c-7.8,0-14.2-6.4-14.2-14.2s6.4-14.2,14.2-14.2,14.2,6.4,14.2,14.2-6.4,14.2-14.2,14.2ZM22.7,785.21c-6.3,0-11.3,5.1-11.3,11.3s5.1,11.3,11.3,11.3,11.3-5,11.3-11.3-5.1-11.3-11.3-11.3Z"/>
        <rect class="cls-1" x="8.5" y="776.71" width="28.3" height="2.8"/>
      </g>
    </g>
  </g>
</svg>