<?xml version="1.0" encoding="UTF-8"?>
<svg id="Layer_1" data-name="Layer 1" xmlns="http://www.w3.org/2000/svg" viewBox="0 0 384 354.44">
  <defs>
    <style>
      .cls-1 {
        fill: #e1c3fe;
      }

      .cls-2 {
        fill: #040489;
      }

      .cls-3 {
        fill: #08088a;
      }

      .cls-4 {
        fill: #e1c4fe;
      }

      .cls-5 {
        fill: #060689;
      }
    </style>
  </defs>
  <path class="cls-2" d="M0,45.26C5.66,21,24.35,2.73,49.84,1.06c51.65-3.38,106.99,2.59,159.02.05,8.13.96,15.04,3.17,22.15,7.09,7.55,4.15,28.74,21.2,34.29,22.66,3.98,1.05,10.91-.27,15.49.26,11.71,1.36,19.75,10.8,20.84,22.24,13.14,1.1,25.28,9.37,28.45,22.5l45.29.09c3.96.44,6.41,2.04,8.62,5.24v5.24c-1.17,1.86-5,5.24-7.12,5.24h-46.88c-3.12,13.18-15.19,21.37-28.32,22.63-1.4,11.42-9.09,20.82-20.89,22.2-4.58.53-11.5-.79-15.49.26-5.19,1.37-25.91,17.86-32.87,21.84-9.02,5.17-18.59,8.33-29.19,7.92,2.32,23.14-9.47,46.08-30.99,55.52-14.07,6.18-27.45,4.01-42.4,4.46l-7.6,37.33h58.88c10.84,0,21.07,9.99,22.12,20.59,1.05,10.61,1.4,41.41-.17,51.46-1.58,10.1-11.06,17.97-21.17,18.55l-161.27-.03c-10.59-1.17-16.83-7.77-20.63-17.21v-68.12c3.78-6.32,10.84-4.59,17.08-6.53,11.18-3.46,16.66-12.58,19.43-23.27,6.07-23.41,8.69-48.77,14.5-72.36-.04-.54-7.82-1.19-9.05-1.47-22.33-5.04-37.22-21.8-41.96-43.83V45.26ZM48.58,16.28c-17.99,2.26-32.05,16.45-33.57,34.61-1.46,17.35-1.35,47.7-.04,65.14,1.46,19.48,16.3,33.82,35.63,35.55l156.76-.04c17.64-1.57,33.04-17.9,48.01-26.19l.25-82.59c-14.81-8.91-31.13-25.39-48.97-26.73l-158.07.24ZM270.75,121.61c6.6.11,13.39,1.23,15.58-6.53-1.1-19.34,2.05-41.49.21-60.5-.92-9.53-8.07-8.86-15.79-8.57v75.6ZM301.5,99.16c19.63-2.38,19.63-28.31,0-30.69v30.69ZM63.75,181.5c-4.26,20.58-7.87,43.58-13.12,63.63-.68,2.62-2.25,8.27-3.38,10.47-2,3.88-9.27,11.75-12.81,14.53-5.99,4.71-12.44,6.47-19.44,9.05v22.83h173.25v-16.84c0-1.87-3.44-5.6-5.67-5.57-21.81-1.71-46.77,2.15-68.2-.05-7.17-.74-9.82-4.1-8.43-11.39l20.04-101.63h-60c-.74,4.91-1.25,10.12-2.25,14.97ZM188.25,166.53h-46.5l-9,44.91h23.62c13.76,0,31.88-19.67,31.88-33.31v-11.6ZM188.25,316.98H15v16.09c0,2.96,5.46,7.04,8.6,6.39h156.06c2.57.86,8.6-3.56,8.6-5.64v-16.84Z"/>
  <path class="cls-1" d="M63.75,181.5h30s-14.26,74.1-14.26,74.1h-32.24c1.14-2.19,2.7-7.85,3.38-10.46,5.25-20.05,8.86-43.05,13.12-63.63Z"/>
  <rect class="cls-4" x="37.5" y="38.53" width="60" height="90.57"/>
  <path class="cls-3" d="M122.51,89.17c-4.75-4.79-.76-13.33,6.12-13.22h96.75c10.5,1.19,11.11,14.52-.76,15.71-29.99,3-64.77-2.24-95.27.04-2.15-.02-5.32-1-6.84-2.53Z"/>
  <path class="cls-5" d="M231.52,41c3.85,4.15,1.42,12.21-4.62,12.51l-102.2-.58c-6.79-4.12-4.9-13.65,3.16-14.42,31.1,2.21,66.17-2.88,96.8-.01,2.11.2,5.39.92,6.86,2.5Z"/>
  <path class="cls-5" d="M231.52,126.62c-1.47,1.58-4.75,2.31-6.86,2.5-30.63,2.87-65.7-2.22-96.8-.01-8.07-.77-9.95-10.3-3.16-14.42l102.2-.58c6.04.3,8.48,8.36,4.62,12.51Z"/>
</svg>